<mxfile><diagram id="RDMX6-g8-n-j-Ijdt38D" name="Page-1"><mxGraphModel dx="982" dy="790" grid="1" gridSize="10" guides="1" tooltips="1" connect="1" arrows="1" fold="1" page="1" pageScale="1" pageWidth="827" pageHeight="1169" math="0" shadow="0"><root><mxCell id="0"/><mxCell id="1" parent="0"/><mxCell id="2" value="" style="rounded=0;whiteSpace=wrap;html=1;" parent="1" vertex="1"><mxGeometry x="40" y="40" width="760" height="490" as="geometry"/></mxCell><mxCell id="3" value="&lt;p&gt;&lt;font style=&quot;font-size: 12px&quot;&gt;Main Section / Header&lt;/font&gt;&lt;/p&gt;" style="rounded=0;whiteSpace=wrap;html=1;fontColor=#ffffff;strokeColor=none;fillColor=#FFAD0B;" parent="1" vertex="1"><mxGeometry x="40" y="40" width="600" height="80" as="geometry"/></mxCell><mxCell id="4" value="Sidebar / Section" style="rounded=0;whiteSpace=wrap;html=1;fillColor=#6a00ff;fontColor=#ffffff;strokeColor=none;" parent="1" vertex="1"><mxGeometry x="640" y="40" width="160" height="490" as="geometry"/></mxCell><mxCell id="5" value="" style="rounded=0;whiteSpace=wrap;html=1;" parent="1" vertex="1"><mxGeometry x="80" y="160" width="240" height="240" as="geometry"/></mxCell><mxCell id="6" value="" style="rounded=0;whiteSpace=wrap;html=1;" parent="1" vertex="1"><mxGeometry x="360" y="160" width="240" height="240" as="geometry"/></mxCell><mxCell id="7" value="" style="rounded=0;whiteSpace=wrap;html=1;fillColor=#fa6800;fontColor=#ffffff;strokeColor=none;" parent="1" vertex="1"><mxGeometry x="80" y="160" width="240" height="80" as="geometry"/></mxCell><mxCell id="8" value="" style="rounded=0;whiteSpace=wrap;html=1;fillColor=#fa6800;fontColor=#ffffff;strokeColor=none;" parent="1" vertex="1"><mxGeometry x="360" y="160" width="240" height="80" as="geometry"/></mxCell><mxCell id="9" value="&lt;h1&gt;Heading&lt;/h1&gt;&lt;p&gt;Lorem ipsum dolor sit amet, consectetur adipisicing elit, sed do eiusmod tempor incididunt ut labore et dolore magna aliqua.&lt;/p&gt;" style="text;html=1;strokeColor=none;fillColor=none;spacing=5;spacingTop=-20;whiteSpace=wrap;overflow=hidden;rounded=0;" parent="1" vertex="1"><mxGeometry x="100" y="260" width="190" height="120" as="geometry"/></mxCell><mxCell id="10" value="&lt;h1&gt;Heading&lt;/h1&gt;&lt;p&gt;Lorem ipsum dolor sit amet, consectetur adipisicing elit, sed do eiusmod tempor incididunt ut labore et dolore magna aliqua.&lt;/p&gt;" style="text;html=1;strokeColor=none;fillColor=none;spacing=5;spacingTop=-20;whiteSpace=wrap;overflow=hidden;rounded=0;" parent="1" vertex="1"><mxGeometry x="385" y="260" width="190" height="120" as="geometry"/></mxCell><mxCell id="11" value="Button" style="rounded=1;whiteSpace=wrap;html=1;fillColor=#6a00ff;strokeColor=#3700CC;fontColor=#ffffff;" parent="1" vertex="1"><mxGeometry x="140" y="430" width="120" height="60" as="geometry"/></mxCell><mxCell id="12" value="Button" style="rounded=1;whiteSpace=wrap;html=1;fillColor=#6a00ff;strokeColor=#3700CC;fontColor=#ffffff;" parent="1" vertex="1"><mxGeometry x="420" y="430" width="120" height="60" as="geometry"/></mxCell><mxCell id="17" value="&lt;p style=&quot;font-size: 10px;&quot;&gt;&lt;font style=&quot;font-size: 10px;&quot;&gt;&lt;sup style=&quot;font-size: 10px;&quot;&gt;10 rem&lt;/sup&gt;&lt;/font&gt;&lt;/p&gt;" style="shape=crossbar;whiteSpace=wrap;html=1;rounded=1;align=center;labelPosition=center;verticalLabelPosition=middle;verticalAlign=middle;spacingTop=-8;dashed=1;fontSize=10;" parent="1" vertex="1"><mxGeometry x="80" y="135" width="240" height="20" as="geometry"/></mxCell><mxCell id="18" value="&lt;p style=&quot;font-size: 10px;&quot;&gt;&lt;font style=&quot;font-size: 10px;&quot;&gt;&lt;sup style=&quot;font-size: 10px;&quot;&gt;10 rem&lt;/sup&gt;&lt;/font&gt;&lt;/p&gt;" style="shape=crossbar;whiteSpace=wrap;html=1;rounded=1;align=center;labelPosition=center;verticalLabelPosition=middle;verticalAlign=middle;spacingTop=-8;dashed=1;fontSize=10;" parent="1" vertex="1"><mxGeometry x="360" y="135" width="240" height="20" as="geometry"/></mxCell><mxCell id="19" value="&lt;font style=&quot;font-size: 10px;&quot;&gt;15 rem&lt;/font&gt;" style="shape=crossbar;html=1;rounded=1;dashed=1;rotation=90;spacingTop=0;horizontal=0;fontSize=10;labelBorderColor=none;spacingLeft=4;" parent="1" vertex="1"><mxGeometry x="221.25" y="269.25" width="237.5" height="20" as="geometry"/></mxCell><mxCell id="20" value="&lt;p style=&quot;font-size: 10px;&quot;&gt;&lt;font style=&quot;font-size: 10px;&quot;&gt;&lt;sup style=&quot;font-size: 10px;&quot;&gt;5 rem&lt;/sup&gt;&lt;/font&gt;&lt;/p&gt;" style="shape=crossbar;whiteSpace=wrap;html=1;rounded=1;align=center;labelPosition=center;verticalLabelPosition=middle;verticalAlign=middle;spacingTop=-8;dashed=1;fontSize=10;" parent="1" vertex="1"><mxGeometry x="140" y="500" width="120" height="20" as="geometry"/></mxCell><mxCell id="21" value="&lt;p style=&quot;font-size: 10px;&quot;&gt;&lt;font style=&quot;font-size: 10px;&quot;&gt;&lt;sup style=&quot;font-size: 10px;&quot;&gt;5 rem&lt;/sup&gt;&lt;/font&gt;&lt;/p&gt;" style="shape=crossbar;whiteSpace=wrap;html=1;rounded=1;align=center;labelPosition=center;verticalLabelPosition=middle;verticalAlign=middle;spacingTop=-8;dashed=1;fontSize=10;" parent="1" vertex="1"><mxGeometry x="420" y="500" width="120" height="20" as="geometry"/></mxCell><mxCell id="22" value="&lt;font style=&quot;font-size: 10px;&quot;&gt;2.5 rem&lt;/font&gt;" style="shape=crossbar;html=1;rounded=1;dashed=1;rotation=90;spacingTop=0;horizontal=0;fontSize=10;labelBorderColor=none;spacingLeft=40;" parent="1" vertex="1"><mxGeometry x="250" y="451.82" width="63.6" height="20" as="geometry"/></mxCell></root></mxGraphModel></diagram></mxfile>